<?xml version="1.0" encoding="UTF-8"?><svg id="Ebene_1" xmlns="http://www.w3.org/2000/svg" viewBox="0 0 307.26 108"><defs><style>.cls-1{fill:#fff;}.cls-2{fill:#66509b;}.cls-3{fill:#80ba27;}</style></defs><path class="cls-1" d="M68.47,26.82c12.92,0,19.38,7.44,19.38,16.6,0,6.61-3.6,12.84-11.72,15.25l12.17,20.88h-14.5l-10.97-19.9h-3.08v19.9h-12.84V26.82h21.55ZM67.72,37.48h-7.96v13.07h7.96c4.81,0,7.06-2.48,7.06-6.61,0-3.91-2.25-6.46-7.06-6.46Z"/><path class="cls-1" d="M112.85,80.14c-12.32,0-21.63-8.26-21.63-21.56s9.54-21.55,21.78-21.55,21.78,8.26,21.78,21.55-9.61,21.56-21.93,21.56ZM112.85,69.03c4.58,0,8.86-3.38,8.86-10.44s-4.21-10.44-8.71-10.44-8.71,3.3-8.71,10.44,3.91,10.44,8.56,10.44Z"/><path class="cls-1" d="M166.08,37.03c10.36,0,18.48,8.26,18.48,21.48s-8.19,21.63-18.48,21.63c-6.16,0-10.59-2.78-12.92-6.46v5.86h-12.84V23.96h12.84v19.6c2.33-3.76,6.91-6.53,12.92-6.53ZM162.25,48.22c-4.81,0-9.16,3.68-9.16,10.36s4.36,10.36,9.16,10.36,9.24-3.75,9.24-10.44-4.36-10.29-9.24-10.29Z"/><path class="cls-2" d="M211.47,70.67v8.88h-23.8v-8.88h5.87v-20.65h-5.87v-9.02h18.08v29.67h5.72ZM206.52,30.03c0,1.96-.67,3.58-2,4.86-1.33,1.28-2.92,1.93-4.75,1.93s-3.45-.67-4.79-2c-1.33-1.33-2-2.93-2-4.79s.67-3.42,2-4.75c1.33-1.33,2.93-2,4.79-2s3.42.67,4.75,2c1.33,1.33,2,2.92,2,4.75Z"/><path class="cls-1" d="M246.1,56.78c0-5.71-3.15-8.86-8.04-8.86s-8.04,3.15-8.04,8.86v22.76h-12.84v-41.91h12.84v5.56c2.55-3.53,7.06-6.01,12.69-6.01,9.69,0,16.15,6.61,16.15,17.87v24.48h-12.77v-22.76Z"/><path class="cls-3" d="M4.63,57.23v-6.46c4.81-.53,7.44-3,7.44-6.91,0-5.71-1.28-14.5-1.28-20.73,0-7.29,4.73-11.34,11.34-11.34h5.03v7.44h-3.3c-3.15,0-4.73,1.35-4.73,4.58,0,5.18,1.2,13.89,1.2,20.35,0,4.96-2.33,8.64-7.81,9.76v.15c5.48,1.13,7.81,4.81,7.81,9.76,0,6.46-1.2,15.17-1.2,20.35,0,3.23,1.58,4.58,4.73,4.58h3.3v7.44h-5.03c-6.61,0-11.34-4.06-11.34-11.34,0-6.23,1.28-15.02,1.28-20.73,0-3.91-2.63-6.38-7.44-6.91Z"/><path class="cls-3" d="M290.12,64.14c0,5.71,1.28,14.5,1.28,20.73,0,7.29-4.73,11.34-11.34,11.34h-5.03v-7.44h3.31c3.15,0,4.73-1.35,4.73-4.58,0-5.18-1.2-13.89-1.2-20.35,0-4.96,2.33-8.64,7.81-9.76v-.15c-5.48-1.13-7.81-4.81-7.81-9.76,0-6.46,1.2-15.17,1.2-20.35,0-3.23-1.58-4.58-4.73-4.58h-3.31v-7.44h5.03c6.61,0,11.34,4.06,11.34,11.34,0,6.23-1.28,15.02-1.28,20.73,0,3.91,2.63,6.38,7.44,6.91v6.46c-4.81.53-7.44,3-7.44,6.91Z"/></svg>