<?xml version="1.0" encoding="UTF-8"?><svg id="Ebene_1" xmlns="http://www.w3.org/2000/svg" viewBox="0 0 307.26 108"><defs><style>.cls-1{fill:#fff;}.cls-2{fill:#66509b;}.cls-3{fill:#80ba27;}</style></defs><path class="cls-2" d="M36,12.46c18.52,0,27.78,10.66,27.78,23.79,0,9.47-5.17,18.41-16.79,21.85l17.44,29.93h-20.78l-15.72-28.53h-4.41v28.53H5.1V12.46h30.9ZM34.92,27.75h-11.41v18.73h11.41c6.89,0,10.12-3.55,10.12-9.47,0-5.6-3.23-9.26-10.12-9.26Z"/><path class="cls-1" d="M97.85,88.9c-17.65,0-31-11.84-31-30.9s13.67-30.9,31.22-30.9,31.22,11.84,31.22,30.9-13.78,30.9-31.44,30.9ZM97.85,72.97c6.57,0,12.71-4.84,12.71-14.96s-6.03-14.96-12.49-14.96-12.49,4.74-12.49,14.96,5.6,14.96,12.27,14.96Z"/><path class="cls-1" d="M173.62,27.11c14.86,0,26.48,11.84,26.48,30.79s-11.73,31.01-26.48,31.01c-8.83,0-15.18-3.98-18.52-9.26v8.4h-18.41V8.37h18.41v28.1c3.34-5.38,9.91-9.37,18.52-9.37ZM168.13,43.15c-6.89,0-13.14,5.27-13.14,14.86s6.25,14.86,13.14,14.86,13.24-5.38,13.24-14.96-6.25-14.75-13.24-14.75Z"/><path class="cls-3" d="M212.25,64.63h18.84l-16.07,37.27h-12.06l9.28-37.27ZM219.14,45.95c-6.57,0-10.98-4.42-10.98-9.9s4.41-10.12,10.98-10.12,10.87,4.41,10.87,10.12-4.41,9.9-10.87,9.9Z"/><path class="cls-1" d="M281.42,55.42c0-8.18-4.52-12.71-11.52-12.71s-11.52,4.52-11.52,12.71v32.62h-18.41V27.97h18.41v7.96c3.66-5.06,10.12-8.61,18.19-8.61,13.89,0,23.15,9.47,23.15,25.62v35.1h-18.3v-32.62Z"/></svg>